<?xml version="1.0" standalone="no"?><!DOCTYPE svg PUBLIC "-//W3C//DTD SVG 1.1//EN"
        "http://www.w3.org/Graphics/SVG/1.1/DTD/svg11.dtd">
<svg t="1703645370913" class="icon" fill="white" viewBox="0 0 1024 1024" version="1.1"
     xmlns="http://www.w3.org/2000/svg" p-id="6319" xmlns:xlink="http://www.w3.org/1999/xlink" width="200" height="200">
    <path d="M841.142857 1024h-658.285714C80.457143 1024 0 943.542857 0 841.142857v-585.142857C0 153.6 80.457143 73.142857 182.857143 73.142857h658.285714C943.542857 73.142857 1024 153.6 1024 256v585.142857c0 102.4-80.457143 182.857143-182.857143 182.857143z m-658.285714-877.714286C124.342857 146.285714 73.142857 197.485714 73.142857 256v585.142857c0 58.514286 51.2 109.714286 109.714286 109.714286h658.285714c58.514286 0 109.714286-51.2 109.714286-109.714286v-585.142857c0-58.514286-51.2-109.714286-109.714286-109.714286h-658.285714z"
          fill="white" p-id="6320"></path>
    <path
          d="M292.571429 241.371429c-21.942857 0-36.571429-14.628571-36.571429-36.571429V36.571429c0-21.942857 14.628571-36.571429 36.571429-36.571429s36.571429 14.628571 36.571428 36.571429v168.228571c0 21.942857-14.628571 36.571429-36.571428 36.571429zM731.428571 241.371429c-21.942857 0-36.571429-14.628571-36.571428-36.571429V36.571429c0-21.942857 14.628571-36.571429 36.571428-36.571429s36.571429 14.628571 36.571429 36.571429v168.228571c0 21.942857-14.628571 36.571429-36.571429 36.571429zM841.142857 497.371429h-292.571428c-21.942857 0-36.571429-14.628571-36.571429-36.571429s14.628571-36.571429 36.571429-36.571429h292.571428c21.942857 0 36.571429 14.628571 36.571429 36.571429s-14.628571 36.571429-36.571429 36.571429zM841.142857 731.428571h-292.571428c-21.942857 0-36.571429-21.942857-36.571429-36.571428s14.628571-36.571429 36.571429-36.571429h292.571428c21.942857 0 36.571429 14.628571 36.571429 36.571429s-14.628571 36.571429-36.571429 36.571428zM226.742857 533.942857c-7.314286 0-21.942857-7.314286-29.257143-14.628571l-58.514285-65.828572c-14.628571-14.628571-14.628571-43.885714 0-51.2 14.628571-14.628571 36.571429-14.628571 51.2 0l36.571428 36.571429 58.514286-65.828572c14.628571-14.628571 36.571429-14.628571 51.2 0 14.628571 14.628571 14.628571 36.571429 0 51.2L256 519.314286c-7.314286 7.314286-21.942857 14.628571-29.257143 14.628571zM226.742857 760.685714c-7.314286 0-21.942857-7.314286-29.257143-14.628571l-58.514285-65.828572c-14.628571-14.628571-14.628571-36.571429 0-51.2 14.628571-14.628571 36.571429-14.628571 51.2 0l36.571428 36.571429 58.514286-65.828571c14.628571-14.628571 36.571429-14.628571 51.2 0 14.628571 14.628571 14.628571 36.571429 0 51.2l-87.771429 102.4s-14.628571 7.314286-21.942857 7.314285z"
          fill="white" p-id="6321"></path>
</svg>