<?xml version="1.0" standalone="no"?><!DOCTYPE svg PUBLIC "-//W3C//DTD SVG 1.1//EN" "http://www.w3.org/Graphics/SVG/1.1/DTD/svg11.dtd"><svg t="1703645232545" class="icon" fill = "white" viewBox="0 0 1024 1024" version="1.1" xmlns="http://www.w3.org/2000/svg" p-id="4279" xmlns:xlink="http://www.w3.org/1999/xlink" width="200" height="200"><path d="M340.625432 460.981069h340.836281c33.231537 0 60.072394-26.840857 60.072394-60.072394v-340.836281c0-33.231537-26.840857-60.072394-60.072394-60.072394h-340.836281c-33.231537 0-60.072394 26.840857-60.072394 60.072394v340.836281c0 33.018515 26.840857 60.072394 60.072394 60.072394z m0-401.121697h340.836281v340.83628h-340.836281v-340.83628zM962.225599 561.101727h-340.836281c-33.231537 0-60.072394 26.840857-60.072394 60.072394v340.83628c0 33.231537 26.840857 60.072394 60.072394 60.072395h340.836281c33.231537 0 60.072394-26.840857 60.072394-60.072395v-340.83628c0-33.018515-26.840857-60.072394-60.072394-60.072394z m0 401.121697h-340.836281v-340.83628h340.836281v340.83628zM400.910849 561.101727h-340.83628c-33.231537 0-60.072394 26.840857-60.072394 60.072394v340.83628c0 33.231537 26.840857 60.072394 60.072394 60.072395h340.83628c33.231537 0 60.072394-26.840857 60.072395-60.072395v-340.83628c0-33.018515-26.840857-60.072394-60.072395-60.072394z m0 401.121697h-340.83628v-340.83628h340.83628v340.83628zM631.401384 160.193052c0 20.024131-10.012066 30.036197-30.036197 30.036197h-180.430206c-20.024131 0-30.036197-10.012066-30.036197-30.036197s10.012066-30.036197 30.036197-30.036197h180.430206c20.024131 0 30.036197 10.012066 30.036197 30.036197zM110.134898 721.507801c0-20.024131 10.012066-30.036197 30.036197-30.036197h180.430206c20.024131 0 30.036197 10.012066 30.036197 30.036197s-10.012066 30.036197-30.036197 30.036197H140.171095c-20.024131 0-30.036197-10.012066-30.036197-30.036197z m561.314749 0c0-20.024131 10.012066-30.036197 30.036197-30.036197h180.430206c20.024131 0 30.036197 10.012066 30.036197 30.036197s-10.012066 30.036197-30.036197 30.036197h-180.430206c-20.024131 0-30.036197-10.012066-30.036197-30.036197z m0 0" p-id="4280"></path></svg>